<?xml version="1.0" encoding="utf-8" ?>
<svg baseProfile="full" height="512" version="1.1" width="512" xmlns="http://www.w3.org/2000/svg" xmlns:ev="http://www.w3.org/2001/xml-events" xmlns:xlink="http://www.w3.org/1999/xlink"><defs /><rect fill="rgb(230,228,151)" height="64" width="64" x="0" y="0" /><rect fill="rgb(90,57,48)" height="64" width="64" x="64" y="0" /><rect fill="rgb(73,46,39)" height="64" width="64" x="128" y="0" /><rect fill="rgb(73,46,39)" height="64" width="64" x="192" y="0" /><rect fill="rgb(195,200,134)" height="64" width="64" x="256" y="0" /><rect fill="rgb(212,216,140)" height="64" width="64" x="320" y="0" /><rect fill="rgb(222,223,147)" height="64" width="64" x="384" y="0" /><rect fill="rgb(230,228,151)" height="64" width="64" x="448" y="0" /><rect fill="rgb(112,72,62)" height="64" width="64" x="0" y="64" /><rect fill="rgb(102,65,56)" height="64" width="64" x="64" y="64" /><rect fill="rgb(90,57,48)" height="64" width="64" x="128" y="64" /><rect fill="rgb(80,51,45)" height="64" width="64" x="192" y="64" /><rect fill="rgb(73,46,39)" height="64" width="64" x="256" y="64" /><rect fill="rgb(195,200,134)" height="64" width="64" x="320" y="64" /><rect fill="rgb(212,216,140)" height="64" width="64" x="384" y="64" /><rect fill="rgb(222,223,147)" height="64" width="64" x="448" y="64" /><rect fill="rgb(212,216,140)" height="64" width="64" x="0" y="128" /><rect fill="rgb(112,72,62)" height="64" width="64" x="64" y="128" /><rect fill="rgb(255,255,255)" height="64" width="64" x="128" y="128" /><rect fill="rgb(255,255,255)" height="64" width="64" x="192" y="128" /><rect fill="rgb(255,255,255)" height="64" width="64" x="256" y="128" /><rect fill="rgb(255,255,255)" height="64" width="64" x="320" y="128" /><rect fill="rgb(195,200,134)" height="64" width="64" x="384" y="128" /><rect fill="rgb(212,216,140)" height="64" width="64" x="448" y="128" /><rect fill="rgb(102,65,56)" height="64" width="64" x="0" y="192" /><rect fill="rgb(112,72,62)" height="64" width="64" x="64" y="192" /><rect fill="rgb(255,186,135)" height="64" width="64" x="128" y="192" /><rect fill="rgb(131,83,71)" height="64" width="64" x="192" y="192" /><rect fill="rgb(131,83,71)" height="64" width="64" x="256" y="192" /><rect fill="rgb(121,77,66)" height="64" width="64" x="320" y="192" /><rect fill="rgb(112,72,62)" height="64" width="64" x="384" y="192" /><rect fill="rgb(102,65,56)" height="64" width="64" x="448" y="192" /><rect fill="rgb(102,65,56)" height="64" width="64" x="0" y="256" /><rect fill="rgb(247,247,247)" height="64" width="64" x="64" y="256" /><rect fill="rgb(0,0,0)" height="64" width="64" x="128" y="256" /><rect fill="rgb(255,186,135)" height="64" width="64" x="192" y="256" /><rect fill="rgb(121,77,66)" height="64" width="64" x="256" y="256" /><rect fill="rgb(0,0,0)" height="64" width="64" x="320" y="256" /><rect fill="rgb(247,247,247)" height="64" width="64" x="384" y="256" /><rect fill="rgb(102,65,56)" height="64" width="64" x="448" y="256" /><rect fill="rgb(102,65,56)" height="64" width="64" x="0" y="320" /><rect fill="rgb(247,247,247)" height="64" width="64" x="64" y="320" /><rect fill="rgb(0,0,0)" height="64" width="64" x="128" y="320" /><rect fill="rgb(255,186,135)" height="64" width="64" x="192" y="320" /><rect fill="rgb(255,186,135)" height="64" width="64" x="256" y="320" /><rect fill="rgb(0,0,0)" height="64" width="64" x="320" y="320" /><rect fill="rgb(247,247,247)" height="64" width="64" x="384" y="320" /><rect fill="rgb(102,65,56)" height="64" width="64" x="448" y="320" /><rect fill="rgb(255,186,135)" height="64" width="64" x="0" y="384" /><rect fill="rgb(255,186,135)" height="64" width="64" x="64" y="384" /><rect fill="rgb(255,186,135)" height="64" width="64" x="128" y="384" /><rect fill="rgb(255,186,135)" height="64" width="64" x="192" y="384" /><rect fill="rgb(255,186,135)" height="64" width="64" x="256" y="384" /><rect fill="rgb(255,186,135)" height="64" width="64" x="320" y="384" /><rect fill="rgb(255,186,135)" height="64" width="64" x="384" y="384" /><rect fill="rgb(255,186,135)" height="64" width="64" x="448" y="384" /><rect fill="rgb(255,186,135)" height="64" width="64" x="0" y="448" /><rect fill="rgb(255,186,135)" height="64" width="64" x="64" y="448" /><rect fill="rgb(255,186,135)" height="64" width="64" x="128" y="448" /><rect fill="rgb(255,186,135)" height="64" width="64" x="192" y="448" /><rect fill="rgb(255,186,135)" height="64" width="64" x="256" y="448" /><rect fill="rgb(255,186,135)" height="64" width="64" x="320" y="448" /><rect fill="rgb(255,186,135)" height="64" width="64" x="384" y="448" /><rect fill="rgb(255,186,135)" height="64" width="64" x="448" y="448" /></svg>